<?xml version="1.0" encoding="UTF-8" standalone="no"?>
<!-- Created with Inkscape (http://www.inkscape.org/) -->

<svg
   width="210mm"
   height="297mm"
   viewBox="0 0 210 297"
   version="1.1"
   id="svg5"
   xml:space="preserve"
   inkscape:version="1.2.2 (732a01da63, 2022-12-09)"
   sodipodi:docname="image_icon.svg"
   xmlns:inkscape="http://www.inkscape.org/namespaces/inkscape"
   xmlns:sodipodi="http://sodipodi.sourceforge.net/DTD/sodipodi-0.dtd"
   xmlns="http://www.w3.org/2000/svg"
   xmlns:svg="http://www.w3.org/2000/svg"><sodipodi:namedview
     id="namedview7"
     pagecolor="#ffffff"
     bordercolor="#000000"
     borderopacity="0.25"
     inkscape:showpageshadow="2"
     inkscape:pageopacity="0.0"
     inkscape:pagecheckerboard="true"
     inkscape:deskcolor="#d1d1d1"
     inkscape:document-units="mm"
     showgrid="false"
     inkscape:zoom="0.35590942"
     inkscape:cx="380.71484"
     inkscape:cy="637.80273"
     inkscape:window-width="1366"
     inkscape:window-height="745"
     inkscape:window-x="-8"
     inkscape:window-y="-8"
     inkscape:window-maximized="1"
     inkscape:current-layer="layer1" /><defs
     id="defs2" /><g
     inkscape:label="Layer 1"
     inkscape:groupmode="layer"
     id="layer1"><path
       style="fill:#ffffff;stroke-width:0.264583"
       d="m 96.355385,165.03603 v -38.62917 h 1.24171 c 1.1378,0 3.483855,1.21208 28.038295,14.48594 l 26.79659,14.48594 0.008,24.14323 0.008,24.14323 H 124.40122 96.355385 Z m 46.037505,12.87953 v -17.28297 l -17.83543,-9.70453 c -9.80949,-5.3375 -17.90574,-9.70453 -17.99166,-9.70453 -0.0859,0 -0.15624,12.14437 -0.15624,26.9875 v 26.9875 h 17.99166 17.99167 z m -67.13904,-8.43159 0.0672,-33.65207 4.96094,-2.98286 4.96094,-2.98286 v 36.63492 36.63493 h -5.0281 -5.02809 z m 50.20571,-40.29622 -28.178135,-15.98219 -0.92604,0.87353 C 95.09164,115.27117 74.04768,128.02504 57.92465,137.37035 l -1.25677,0.72846 v -5.51557 -5.51557 l 9.19427,-5.69234 9.19427,-5.69233 0.0697,-8.92558 0.0697,-8.925563 h 5.54737 5.54736 l 0.0715,5.399463 0.0715,5.39946 5.95312,-3.70017 c 3.274225,-2.0351 6.089795,-3.75855 6.256825,-3.8299 0.16703,-0.0713 0.58375,0.1315 0.92604,0.45076 0.3423,0.31927 12.736965,7.42619 27.543705,15.79316 l 26.92135,15.21267 v 6.31749 c 0,3.47461 -0.0893,6.31246 -0.19843,6.30632 -0.10914,-0.006 -12.8786,-7.20315 -28.37656,-15.99336 z"
       id="path242" /></g></svg>
